<svg xmlns="http://www.w3.org/2000/svg" viewBox="0 0 256 256" width="256" height="256">
  <rect width="256" height="256" rx="40" ry="40" fill="#5756e4"/>
  <g transform="translate(22.97,162.54) scale(0.1167,-0.1167)" fill="white">
    <path d="M77 0V550H199V445H233L199 416Q199 484 238.5 522.0Q278 560 347 560Q428 560 476.5 506.0Q525 452 525 361V0H400V348Q400 398 374.0 425.0Q348 452 301 452Q255 452 228.5 424.0Q202 396 202 344V0Z"/>
    <g transform="translate(600,0)"><path d="M104 0 20 550H124L170 213Q174 184 177.5 149.0Q181 114 183 91Q186 114 191.0 149.0Q196 184 200 213L252 550H349L400 213Q404 184 409.0 148.5Q414 113 417 90Q419 114 423.5 149.5Q428 185 431 213L480 550H580L494 0H365L317 339Q313 367 308.0 401.5Q303 436 300 458Q297 436 292.5 401.5Q288 367 283 339L233 0Z"/></g>
    <g transform="translate(1200,0)"><path d="M60 -138V-25H540V-138Z"/></g>
  </g>
</svg>
